<?xml version="1.0" standalone="no"?>
<!DOCTYPE svg PUBLIC "-//W3C//DTD SVG 20010904//EN"
 "http://www.w3.org/TR/2001/REC-SVG-20010904/DTD/svg10.dtd">
<svg version="1.0" xmlns="http://www.w3.org/2000/svg"
 width="1123.000000pt" height="1123.000000pt" viewBox="0 0 1123.000000 1123.000000"
 preserveAspectRatio="xMidYMid meet">
<metadata>
Created by potrace 1.11, written by Peter Selinger 2001-2013
</metadata>
<g transform="translate(0.000000,1123.000000) scale(0.100000,-0.100000)"
fill="#000000" stroke="none">
<path d="M4984 10537 c-40 -23 -197 -180 -274 -274 -91 -110 -421 -565 -465
-641 -5 -9 -12 -19 -15 -22 -16 -15 -113 -174 -139 -226 -29 -59 -87 -246 -97
-309 -33 -226 -32 -561 1 -725 3 -14 8 -41 11 -60 10 -67 13 -80 18 -98 3 -9
7 -28 10 -42 2 -14 16 -71 30 -127 31 -121 31 -122 9 -130 -17 -6 -182 -119
-210 -142 -6 -6 -38 -32 -70 -58 -83 -67 -125 -105 -238 -219 -173 -173 -277
-304 -426 -534 -33 -51 -94 -162 -140 -256 -30 -60 -56 -111 -59 -114 -3 -3
-6 -11 -8 -19 -2 -8 -17 -42 -33 -75 -17 -34 -30 -61 -29 -61 2 0 -12 -37 -28
-75 -8 -19 -15 -39 -16 -45 -1 -5 -13 -41 -28 -80 -24 -62 -74 -228 -83 -274
-2 -9 -4 -16 -5 -16 -1 0 -3 -12 -5 -26 -2 -14 -8 -43 -13 -65 -6 -21 -13 -57
-16 -79 -4 -22 -8 -51 -11 -65 -3 -14 -7 -36 -10 -49 -8 -45 -16 -35 -11 14 7
72 26 196 30 204 2 3 7 27 10 54 4 26 11 60 17 75 6 15 10 28 10 30 -1 1 -1 3
0 5 0 1 2 9 4 17 19 86 32 132 67 235 22 66 45 126 51 133 5 6 6 12 3 12 -4 0
-1 10 5 23 9 17 9 19 0 11 -7 -6 -14 -18 -15 -25 -2 -8 -8 -27 -14 -42 -7 -16
-12 -31 -12 -34 0 -3 -6 -19 -13 -36 -19 -45 -43 -118 -68 -212 -11 -44 -23
-87 -25 -95 -15 -55 -44 -192 -49 -228 -2 -24 -7 -47 -9 -50 -2 -4 -6 -29 -10
-57 -3 -27 -8 -61 -11 -75 -4 -23 -13 -69 -21 -112 -1 -9 -6 -37 -9 -62 -4
-25 -11 -46 -15 -46 -13 0 5 283 25 400 3 14 7 48 11 75 3 28 13 82 21 120 8
39 16 79 18 90 1 11 8 40 15 65 7 25 14 54 16 65 2 12 12 46 23 78 11 31 17
57 12 57 -6 0 -48 -116 -57 -155 -1 -5 -12 -44 -24 -85 -12 -41 -23 -82 -25
-90 -2 -8 -4 -15 -5 -15 -1 0 -4 -13 -6 -29 -3 -17 -9 -37 -14 -45 -13 -21 -5
25 26 154 14 55 26 109 28 120 1 11 8 36 14 55 28 86 42 135 39 141 -1 3 3 12
9 20 6 8 17 32 24 54 7 22 23 64 36 93 28 61 29 65 12 57 -7 -4 -6 0 2 7 22
20 42 58 30 58 -5 0 -10 -5 -10 -11 0 -5 -4 -7 -10 -4 -6 3 -7 -1 -4 -9 3 -9
2 -16 -4 -16 -5 0 -17 -19 -27 -42 -30 -78 -40 -98 -47 -98 -12 0 -10 16 7 52
8 18 26 65 41 103 15 39 58 133 97 210 39 77 75 150 81 162 6 13 14 23 19 23
4 0 7 5 7 11 0 12 181 288 204 312 6 6 25 30 41 52 135 181 385 418 555 525
30 19 57 38 58 42 2 5 8 8 14 8 13 0 117 63 118 72 0 3 -11 1 -25 -5 -14 -7
-25 -16 -25 -20 0 -5 -4 -5 -10 -2 -5 3 -10 1 -10 -4 0 -6 -5 -11 -10 -11 -11
0 -87 -47 -108 -68 -8 -6 -23 -17 -33 -23 -50 -27 -273 -215 -385 -326 -39
-39 -55 -49 -62 -40 -7 9 7 30 49 77 98 107 122 132 202 208 83 78 91 94 18
35 -161 -130 -348 -325 -469 -486 -29 -39 -58 -75 -65 -79 -7 -4 -7 -8 -2 -8
6 0 6 -3 0 -8 -6 -4 -24 -28 -40 -54 -17 -27 -33 -48 -37 -48 -5 0 -8 -4 -8
-10 0 -5 -19 -40 -42 -77 -22 -38 -51 -86 -63 -108 -33 -60 -94 -171 -139
-255 -55 -101 -89 -108 -41 -7 8 15 10 27 6 27 -4 0 -16 -19 -26 -42 -10 -24
-37 -83 -60 -133 -23 -49 -50 -115 -60 -145 -9 -30 -22 -59 -27 -65 -5 -5 -2
10 7 34 17 50 19 64 4 38 -21 -35 -27 -75 -16 -87 9 -10 8 -12 -4 -7 -9 3 -16
0 -16 -9 0 -7 5 -11 11 -8 6 3 3 -1 -7 -9 -17 -14 -24 -33 -8 -23 4 3 1 -15
-7 -39 -8 -25 -18 -42 -23 -39 -5 3 -9 0 -9 -5 0 -6 4 -11 10 -11 5 0 7 -7 4
-15 -4 -8 -14 -15 -23 -15 -13 0 -13 -2 -2 -9 10 -6 10 -10 1 -16 -9 -6 -9
-10 1 -16 11 -7 10 -9 -3 -9 -10 0 -18 -5 -18 -11 0 -5 6 -7 12 -3 7 4 6 -1
-3 -12 -14 -16 -40 -110 -55 -201 -2 -15 -9 -50 -14 -78 -10 -51 -17 -98 -25
-170 -3 -22 -7 -53 -10 -70 -24 -158 -24 -619 0 -800 2 -16 7 -50 10 -75 3
-25 7 -56 9 -70 3 -14 7 -41 10 -60 11 -74 60 -295 77 -347 5 -17 12 -44 15
-59 3 -15 9 -35 15 -46 5 -10 7 -18 4 -18 -3 0 1 -13 10 -30 9 -16 13 -30 11
-30 -6 0 62 -197 81 -234 8 -15 10 -25 4 -22 -5 4 -16 19 -24 34 -7 15 -24 45
-37 67 -13 22 -53 99 -90 172 -37 73 -70 129 -74 126 -3 -4 -6 -17 -6 -31 0
-21 -2 -23 -16 -11 -14 12 -15 9 -10 -26 10 -61 43 -176 67 -232 5 -13 13 -33
18 -45 109 -275 293 -584 477 -803 98 -117 115 -136 219 -240 161 -162 282
-261 465 -381 41 -27 79 -52 85 -57 13 -9 256 -162 310 -194 22 -13 49 -29 60
-36 11 -7 42 -26 70 -43 27 -17 86 -50 130 -74 97 -52 114 -66 56 -45 -104 36
-44 -28 87 -95 103 -52 310 -115 447 -136 130 -20 166 -25 205 -29 25 -2 56
-7 70 -9 62 -11 195 -31 275 -40 234 -29 650 -29 845 0 58 8 224 36 245 41 11
2 31 6 45 9 14 3 50 11 80 19 30 7 98 21 150 30 119 21 185 38 245 65 11 5 55
23 98 40 89 34 189 83 230 112 15 11 27 17 27 13 0 -3 12 2 28 12 l27 17 -19
-22 c-19 -22 -19 -22 1 -22 47 0 173 91 173 124 0 14 14 30 40 46 22 14 40 28
40 32 0 5 6 8 13 8 7 0 23 9 35 20 12 11 26 20 32 20 5 0 10 5 10 10 0 6 4 10
10 10 5 0 18 6 27 14 10 8 68 51 128 97 124 93 161 127 318 287 61 61 114 112
118 112 3 0 -1 -20 -9 -44 -9 -25 -13 -48 -9 -52 10 -11 39 17 33 33 -6 15 43
133 55 133 5 0 9 6 9 14 0 8 3 16 8 18 9 4 72 76 97 112 57 82 187 222 171
186 -3 -8 -9 -23 -12 -32 -4 -10 -10 -18 -15 -18 -5 0 -9 -7 -9 -15 0 -8 -4
-15 -10 -15 -5 0 -10 -5 -10 -10 0 -9 -35 -65 -50 -80 -3 -3 -36 -50 -73 -105
-37 -55 -82 -119 -99 -142 -32 -43 -35 -61 -8 -40 8 7 35 39 60 72 25 33 52
68 60 78 8 10 15 23 15 30 1 7 7 11 14 9 7 -1 10 2 6 8 -3 5 -1 10 4 10 6 0
10 6 9 13 -2 6 3 11 10 9 6 -1 12 2 12 6 0 5 8 17 18 28 79 89 185 260 196
316 8 42 27 82 75 158 35 55 47 83 46 107 -2 18 8 53 24 85 39 77 125 297 119
304 -3 3 2 32 12 65 10 32 16 59 13 59 -3 0 0 7 7 15 6 8 9 19 5 25 -3 5 -1
10 5 10 6 0 9 4 6 9 -4 5 -1 22 5 38 6 15 12 51 14 78 2 28 5 51 6 53 1 1 2 5
3 10 1 4 4 12 8 18 4 6 10 24 13 40 3 16 19 74 35 129 17 55 33 111 36 124 3
13 10 34 17 45 16 28 18 45 22 157 3 78 0 104 -16 139 -10 23 -19 48 -19 56 0
8 -5 14 -11 14 -6 0 -9 -6 -6 -13 3 -8 1 -36 -4 -63 -5 -27 -11 -65 -13 -84
-2 -19 -8 -53 -14 -75 -6 -22 -13 -56 -16 -75 -3 -19 -15 -73 -26 -120 -12
-47 -22 -91 -24 -98 -1 -7 -6 -12 -12 -11 -5 0 -8 6 -6 11 2 6 -5 8 -15 4 -16
-5 -16 -4 -3 6 16 14 19 26 23 105 1 28 4 50 7 48 3 -2 5 25 5 58 0 34 2 66 4
72 3 5 6 26 7 45 1 19 5 64 9 100 11 102 13 440 2 440 -5 0 -4 7 3 15 7 9 8
15 2 15 -5 0 -10 15 -11 33 -1 17 -3 48 -5 67 -3 19 -7 58 -10 85 -12 98 -38
235 -66 345 -5 19 -13 54 -19 77 -10 40 -36 116 -66 193 -7 19 -23 62 -35 95
-12 33 -28 74 -35 90 -33 75 -67 161 -69 173 -1 7 -10 21 -18 32 -9 10 -13 22
-10 26 4 4 2 4 -5 0 -7 -4 -19 6 -29 24 -10 16 -22 30 -26 30 -4 0 -8 9 -8 20
0 11 -5 20 -10 20 -6 0 -16 12 -23 28 -6 15 -14 29 -17 32 -4 3 -21 30 -39 60
-29 49 -33 51 -15 5 4 -9 3 -15 -2 -14 -22 4 -23 -4 -4 -41 11 -22 18 -40 16
-40 -13 0 -206 359 -206 384 -1 6 -23 40 -50 75 -26 35 -54 76 -62 90 -15 30
-98 136 -98 126 0 -4 27 -45 60 -92 33 -46 60 -86 60 -88 0 -3 15 -28 34 -57
68 -107 118 -203 96 -183 -12 11 -36 43 -53 72 -17 29 -35 53 -39 53 -5 0 -8
7 -8 15 0 9 -7 18 -15 21 -8 4 -13 10 -10 14 3 4 -14 26 -36 49 -23 23 -36 41
-30 41 8 0 6 10 -5 29 -10 17 -25 29 -36 28 -10 -1 -18 -4 -18 -7 0 -7 63 -84
72 -88 5 -2 8 -10 8 -18 0 -8 7 -17 15 -20 17 -7 21 -34 5 -34 -5 0 -10 5 -10
10 0 14 -107 129 -114 123 -3 -3 -13 0 -22 8 -10 8 -20 13 -23 12 -3 -2 -7 2
-7 7 -1 6 -2 15 -3 21 0 6 -17 26 -36 45 -43 41 -57 73 -43 98 7 13 7 17 0 12
-6 -3 -32 16 -58 44 -26 28 -49 48 -51 46 -2 -2 14 -22 37 -45 56 -55 28 -52
-32 3 -26 24 -64 56 -84 72 -20 16 -42 34 -48 39 -6 6 -36 30 -66 55 -30 25
-57 47 -60 50 -3 3 -23 18 -45 35 -22 16 -42 32 -45 35 -18 22 -412 250 -434
251 -20 2 -46 13 -46 20 0 5 -6 9 -14 9 -12 0 -60 19 -144 56 -18 8 -37 12
-42 9 -6 -3 -10 -1 -10 5 0 6 -4 9 -8 6 -5 -3 -22 2 -38 10 -16 9 -30 15 -32
14 -5 -4 -137 23 -152 30 -8 5 -32 11 -54 14 -21 4 -42 9 -47 12 -5 3 -9 1 -9
-4 0 -7 57 -26 115 -38 9 -2 73 -18 115 -29 8 -2 16 -4 18 -5 1 -2 5 -3 10 -4
4 -1 12 -4 17 -7 6 -3 30 -11 55 -18 25 -8 59 -18 75 -25 17 -6 33 -11 38 -12
4 -1 9 -3 12 -4 3 -1 8 -3 13 -4 4 -2 32 -14 64 -28 31 -14 65 -29 75 -32 11
-3 61 -29 113 -56 52 -28 98 -50 102 -50 4 0 8 -5 8 -12 0 -6 3 -9 6 -5 4 3
12 1 19 -6 7 -7 58 -41 114 -76 55 -35 98 -68 95 -72 -3 -5 3 -6 12 -2 13 5
16 3 11 -10 -4 -11 -2 -14 9 -10 9 3 14 0 12 -8 -2 -8 4 -13 14 -13 9 1 15 -4
13 -10 -5 -14 20 -43 68 -79 55 -42 87 -73 87 -86 0 -6 4 -11 9 -11 11 0 89
-74 111 -105 l15 -20 -25 20 c-14 11 -32 27 -40 36 -8 8 -33 28 -55 45 -22 16
-53 41 -70 56 -16 16 -34 28 -39 28 -4 0 -6 7 -3 14 4 10 1 13 -9 9 -7 -3 -14
0 -14 6 0 6 -6 11 -12 11 -7 0 -26 12 -43 28 -16 15 -59 47 -95 72 -36 24 -71
50 -78 57 -12 12 -83 35 -89 29 -2 -1 9 -9 25 -17 15 -8 32 -17 37 -21 6 -5
44 -30 85 -57 41 -28 89 -64 107 -81 18 -16 34 -30 37 -30 3 0 18 -12 34 -27
15 -16 44 -41 65 -57 20 -16 34 -34 30 -39 -3 -6 -1 -7 4 -4 11 7 140 -109
132 -118 -3 -3 -22 11 -42 30 -21 20 -37 32 -37 27 0 -11 84 -82 97 -82 4 0 1
5 -7 11 -13 9 -13 10 0 6 8 -2 14 -11 14 -20 -1 -9 10 -26 24 -39 15 -13 20
-15 13 -5 -18 23 -6 22 19 -3 25 -25 26 -37 3 -19 -16 13 -17 12 -4 -3 7 -10
19 -18 26 -18 18 0 75 -62 104 -113 l23 -42 -23 22 c-13 12 -27 22 -31 22 -9
1 -51 41 -43 41 7 0 -187 190 -222 217 -15 12 -43 35 -62 52 -19 17 -39 32
-45 35 -7 3 -6 8 4 16 13 10 12 11 -3 6 -12 -4 -32 4 -53 20 -38 29 -39 42 -2
24 22 -11 22 -10 3 5 -11 8 -25 13 -32 11 -10 -4 -132 70 -153 94 -3 3 -27 17
-55 32 -27 15 -49 32 -47 38 1 7 -2 9 -8 5 -6 -4 -16 -2 -23 3 -7 5 -23 13
-36 17 -42 13 -15 -11 81 -70 51 -32 95 -61 98 -65 3 -3 12 -9 20 -12 19 -7
144 -100 148 -110 2 -5 8 -8 14 -8 15 0 87 -67 80 -75 -4 -3 1 -3 10 0 12 5
50 -27 140 -116 67 -68 115 -120 105 -116 -9 3 -17 2 -17 -3 0 -6 4 -10 8 -10
4 0 16 -14 26 -30 9 -17 29 -42 42 -55 14 -14 21 -25 17 -25 -4 0 3 -7 15 -16
12 -8 20 -19 17 -23 -2 -5 5 -17 17 -27 14 -13 19 -14 14 -4 -5 8 3 2 18 -15
14 -16 25 -35 26 -41 0 -7 13 -22 30 -35 16 -13 30 -28 30 -32 0 -5 13 -28 29
-51 26 -37 81 -149 81 -164 0 -2 -10 8 -22 24 -13 16 -22 34 -20 41 2 7 -1 13
-6 13 -5 0 -26 29 -47 65 -21 36 -39 65 -42 65 -2 0 1 -9 7 -19 18 -34 11 -36
-22 -5 l-31 29 23 -35 c13 -19 27 -37 31 -40 3 -3 19 -30 34 -60 15 -30 31
-57 35 -60 3 -3 10 -14 13 -25 6 -16 3 -15 -14 5 -11 14 -32 37 -45 52 -13 15
-24 31 -24 35 0 5 -13 22 -28 40 -15 17 -32 39 -38 49 -9 16 -11 16 -17 1 -3
-9 2 -26 14 -39 11 -13 17 -17 13 -9 -4 9 -3 12 4 7 6 -4 9 -13 6 -20 -3 -7 5
-26 18 -42 31 -39 47 -64 61 -96 6 -16 15 -28 19 -28 4 0 8 -5 8 -10 0 -6 8
-22 17 -37 36 -54 13 -71 -25 -19 -13 17 -53 72 -90 122 -37 49 -76 108 -87
130 -24 48 -85 139 -119 178 -130 147 -312 326 -282 278 3 -5 -1 -12 -9 -15
-8 -4 -61 26 -122 67 -59 41 -126 84 -148 97 -55 31 -232 119 -241 119 -14 0
88 -61 144 -87 61 -27 165 -92 170 -105 2 -4 8 -8 14 -8 12 0 102 -61 106 -72
2 -4 8 -8 14 -8 5 0 15 -6 22 -12 8 -7 38 -33 67 -58 64 -53 79 -68 184 -184
44 -49 86 -95 93 -102 9 -10 9 -15 0 -20 -6 -4 -23 6 -40 25 -15 17 -28 27
-28 21 0 -7 -6 -6 -14 2 -8 7 -12 16 -10 20 5 7 -34 54 -94 114 -23 23 -38 31
-42 23 -5 -7 -10 -8 -14 -1 -3 6 0 12 6 15 7 2 9 8 5 13 -4 5 -12 2 -17 -6 -6
-8 -10 -13 -11 -10 0 3 -2 13 -4 24 -2 10 -9 24 -15 30 -8 8 -9 6 -4 -9 7 -18
6 -18 -9 -6 -9 7 -14 17 -11 22 3 5 -1 6 -9 4 -13 -5 -54 30 -50 44 1 3 -14
20 -33 37 -19 18 -34 28 -34 23 0 -4 4 -10 10 -14 5 -3 8 -11 6 -18 -1 -7 -1
-9 1 -5 2 4 11 4 19 1 11 -4 12 -8 4 -13 -7 -4 9 -22 42 -48 29 -22 75 -63
102 -91 27 -28 53 -48 58 -45 4 3 8 1 8 -5 0 -11 119 -141 129 -139 17 2 25
-3 14 -10 -9 -5 -1 -21 27 -51 22 -24 40 -46 40 -50 0 -3 14 -22 30 -41 16
-19 30 -38 30 -42 0 -16 -31 1 -52 28 -23 29 -71 84 -96 110 -7 8 -12 14 -9
14 6 0 -93 109 -166 183 -95 95 -156 117 -103 37 14 -22 26 -42 26 -44 0 -3
13 -28 30 -56 16 -27 26 -50 21 -50 -10 0 -54 34 -106 82 -42 39 -111 88 -123
88 -4 0 0 -5 8 -11 11 -8 7 -9 -17 -5 -65 11 -27 -24 47 -44 64 -17 217 -174
247 -252 11 -32 19 -58 17 -58 -2 0 -15 17 -28 38 -27 42 -84 102 -97 102 -16
0 35 -73 84 -122 27 -26 41 -45 31 -41 -12 4 -15 3 -10 -5 12 -19 -3 -35 -20
-21 -8 6 -14 9 -14 5 0 -14 -125 107 -142 138 -7 13 -7 16 1 12 18 -11 13 6
-6 21 -28 22 -156 109 -173 117 -8 4 -31 15 -50 26 -50 26 -52 14 -5 -27 79
-69 85 -75 85 -85 0 -6 -11 -7 -27 -4 -19 5 -8 -5 32 -30 75 -47 163 -114 191
-145 11 -13 32 -44 46 -69 38 -65 68 -96 79 -78 7 10 15 6 36 -17 16 -16 36
-36 45 -44 17 -13 17 -11 3 30 -9 24 -23 59 -31 77 -17 35 -12 54 8 34 7 -7
21 -12 33 -12 18 0 58 -35 129 -112 9 -9 16 -21 16 -27 0 -6 4 -11 9 -11 5 0
19 -16 31 -35 12 -19 26 -35 31 -35 6 0 -4 21 -22 47 -18 25 -27 43 -21 39 15
-9 15 4 1 41 l-10 28 26 -25 c14 -13 32 -35 39 -49 83 -160 90 -176 57 -147
-12 11 -21 14 -21 8 0 -7 4 -12 8 -12 5 0 16 -16 25 -35 16 -34 16 -35 -4 -35
-16 0 -19 -3 -12 -12 14 -19 24 -48 15 -48 -4 0 -16 13 -27 29 -10 16 -22 28
-26 25 -4 -2 -14 5 -22 17 -9 11 -25 28 -37 36 -21 15 -22 14 -19 -8 2 -13 -1
-25 -6 -26 -13 -2 -65 29 -65 39 0 4 -6 8 -14 8 -8 0 -16 3 -18 8 -4 9 -51 37
-99 59 -26 12 -49 36 -79 84 -29 46 -48 67 -60 66 -10 -1 -18 -4 -18 -7 2 -18
-4 -21 -19 -9 -15 12 -16 12 -8 -1 5 -8 18 -27 29 -43 15 -21 17 -30 8 -39
-15 -15 -16 -48 -2 -48 6 0 10 -9 10 -19 0 -11 3 -21 8 -23 9 -4 47 -73 62
-113 11 -30 11 -29 -32 11 -83 79 -136 126 -170 149 -18 14 -37 28 -43 33 -21
18 -131 88 -155 98 -23 11 -72 33 -95 43 -5 2 -4 -3 3 -12 8 -9 24 -19 35 -23
28 -8 227 -211 227 -231 0 -3 7 -14 16 -24 37 -41 119 -210 139 -285 8 -30 16
-58 19 -63 18 -29 27 -347 13 -446 -16 -113 -49 -220 -99 -319 -59 -118 -208
-352 -265 -416 -7 -8 -34 -39 -60 -69 -91 -103 -280 -281 -300 -281 -7 0 -13
-4 -13 -8 0 -5 -12 -15 -27 -23 -16 -8 -30 -16 -33 -19 -31 -31 -231 -121
-330 -148 -71 -20 -88 -24 -170 -38 -19 -4 -80 -7 -135 -7 -116 0 -187 17
-287 70 -68 35 -168 124 -168 149 0 8 -4 14 -10 14 -5 0 -9 3 -8 8 1 4 -2 18
-6 32 -14 52 -12 117 6 185 19 68 63 163 83 177 5 4 6 8 2 8 -7 0 13 29 86
125 61 81 269 287 393 390 192 160 268 242 380 412 91 137 192 350 220 463 2
8 12 47 22 86 11 39 19 87 18 107 -1 20 2 37 5 37 7 0 3 417 -5 450 -3 14 -13
59 -22 100 -8 41 -18 82 -21 90 -3 8 -8 23 -9 32 -2 10 -5 23 -6 30 -2 7 2 12
7 11 6 -1 24 -4 40 -8 21 -4 16 0 -14 12 -43 18 -44 18 -71 113 -35 120 -77
243 -100 295 -10 23 -20 47 -22 54 -6 28 -127 269 -137 276 -6 3 -11 13 -11
21 0 8 5 12 10 9 6 -3 10 -1 10 4 0 6 -8 11 -18 11 -12 0 -26 15 -38 38 -10
20 -21 39 -25 42 -9 8 -69 101 -69 106 0 3 -6 12 -12 19 -27 30 -38 44 -38 50
0 3 -9 16 -20 28 -11 12 -18 27 -15 35 2 7 1 11 -4 8 -4 -3 -17 4 -27 15 -19
21 -19 21 11 18 17 -2 36 -7 43 -12 8 -6 12 -5 12 5 0 15 -2 16 -59 21 -27 3
-42 13 -66 44 -17 22 -38 47 -46 55 -8 9 -31 35 -50 58 -18 23 -45 54 -59 69
-51 52 -255 298 -312 374 -42 57 -60 74 -64 63 -6 -15 -1 -80 11 -136 3 -14 8
-45 11 -70 11 -86 54 -228 93 -311 22 -46 42 -95 45 -109 2 -14 5 -25 6 -25 9
0 30 -177 33 -281 5 -124 -10 -163 -81 -211 -87 -58 -126 -66 -235 -49 -72 11
-77 12 -147 35 -170 56 -339 166 -480 313 -69 72 -81 88 -74 100 4 6 3 8 -3 5
-6 -4 -16 -1 -22 6 -8 10 -7 14 2 14 12 0 62 9 106 17 12 3 29 10 35 15 7 6
33 13 57 15 24 3 44 5 44 6 0 2 40 7 100 15 22 2 103 8 180 11 77 4 151 10
165 15 27 8 -338 4 -380 -5 -14 -3 -50 -7 -80 -10 -30 -3 -66 -7 -80 -10 -14
-3 -38 -7 -55 -10 -16 -3 -41 -7 -55 -10 -14 -3 -36 -8 -50 -11 -20 -4 -30 1
-48 24 -23 32 -20 39 25 45 15 2 46 8 68 14 103 29 175 44 230 47 55 3 91 7
195 20 64 9 134 15 229 20 52 3 101 10 110 15 10 6 11 10 4 10 -20 0 -26 2
-52 11 -27 11 -87 20 -146 23 -22 1 -45 4 -50 7 -14 7 -368 3 -445 -4 -36 -4
-111 -15 -168 -25 -111 -20 -106 -22 -140 39 -60 108 -92 176 -85 183 4 3 1 6
-5 6 -7 0 -12 4 -12 9 0 5 -8 26 -17 47 -9 22 -17 41 -18 44 0 3 -6 21 -13 41
-40 116 -52 228 -48 434 2 105 6 197 8 205 3 8 9 38 13 65 10 57 12 64 15 68
1 1 3 11 5 22 2 11 9 38 15 60 6 22 13 51 16 64 3 13 9 31 13 40 5 9 10 19 10
23 5 26 40 127 62 175 10 24 19 45 19 48 0 17 140 302 169 345 34 49 81 140
81 155 0 18 -8 18 -36 2z m-849 -2768 c-4 -5 -2 -9 2 -9 5 0 15 -21 22 -47 8
-27 18 -55 22 -63 3 -8 11 -26 17 -40 22 -53 113 -237 138 -280 39 -66 128
-246 159 -320 58 -140 148 -433 160 -523 2 -15 6 -31 9 -35 2 -4 7 -32 11 -62
4 -30 8 -57 10 -60 2 -3 7 -33 10 -65 4 -33 9 -68 10 -77 2 -9 7 -61 11 -115
3 -54 7 -107 8 -118 2 -19 -33 -121 -54 -157 -6 -10 -10 -24 -10 -32 0 -8 -3
-16 -7 -18 -5 -1 -23 -32 -42 -67 -18 -36 -42 -74 -52 -85 -11 -11 -19 -24
-19 -28 0 -5 -15 -25 -32 -45 -98 -108 -176 -157 -283 -178 -51 -10 -198 -5
-212 6 -7 6 -13 9 -13 6 0 -12 -168 57 -180 73 -3 4 -16 13 -30 20 -40 21
-134 102 -171 147 -85 106 -119 208 -114 343 2 49 6 94 10 100 4 6 8 24 10 40
5 35 49 149 83 210 27 49 112 182 122 190 3 3 19 23 36 45 29 40 70 87 134
155 100 105 140 153 134 161 -5 9 -91 -33 -104 -51 -3 -3 -26 -21 -52 -38
-103 -70 -373 -353 -449 -470 -10 -15 -36 -53 -58 -86 -23 -32 -41 -60 -41
-63 0 -3 -10 -19 -22 -36 -13 -18 -28 -41 -34 -52 -30 -56 -57 -101 -63 -105
-11 -9 -197 -383 -235 -475 -45 -106 -54 -119 -49 -68 2 21 5 61 7 88 6 74 22
231 25 243 1 1 1 4 2 7 0 2 8 33 16 67 8 35 16 70 18 78 1 8 5 22 8 30 5 14
17 59 23 86 8 40 39 136 55 171 10 23 19 45 19 48 0 31 224 491 251 515 3 3
15 23 28 45 12 22 16 31 7 21 -22 -27 -20 -14 5 39 12 25 26 45 32 45 6 0 8 3
4 6 -3 4 -1 12 6 20 7 7 35 45 62 85 28 39 64 88 82 108 17 19 30 37 28 39 -5
5 -55 -52 -118 -135 -29 -38 -55 -70 -58 -73 -13 -12 -99 -141 -99 -149 0 -5
-4 -11 -8 -13 -10 -4 -84 -134 -82 -144 1 -4 -2 -10 -7 -13 -13 -9 -91 -165
-125 -251 -16 -41 -36 -88 -43 -105 -14 -33 -83 -241 -91 -277 -3 -13 -7 -32
-9 -43 -1 -11 -8 -40 -15 -65 -7 -25 -14 -54 -16 -65 -14 -70 -27 -142 -29
-155 -1 -8 -5 -44 -10 -80 -4 -36 -9 -74 -11 -85 -5 -27 -14 -158 -19 -275 -2
-52 -5 -104 -8 -115 -11 -48 -24 -149 -28 -223 -4 -60 -17 -39 -24 38 -4 36
-8 83 -10 105 -5 51 -5 402 0 475 6 89 19 205 30 260 3 14 7 39 9 55 3 17 7
42 10 55 3 14 8 36 10 50 7 35 12 56 31 125 9 33 18 67 20 75 2 8 4 15 5 15 1
0 3 7 5 15 2 8 14 50 28 93 14 42 22 77 18 77 -3 0 -1 4 5 8 6 4 24 45 40 92
29 87 187 411 227 464 4 6 33 49 64 96 62 94 129 184 195 263 56 67 300 312
356 357 24 19 50 41 57 48 33 30 220 150 227 146 5 -3 6 -10 3 -15z m3830
-397 c-3 -3 -11 0 -18 7 -9 10 -8 11 6 5 10 -3 15 -9 12 -12z m-5 -42 c0 -5
-2 -10 -4 -10 -3 0 -8 5 -11 10 -3 6 -1 10 4 10 6 0 11 -4 11 -10z m227 -45
c9 -24 -1 -27 -15 -5 -8 13 -8 20 -2 20 6 0 13 -7 17 -15z m-73 -21 c6 2 8 1
3 -1 -4 -3 -5 -9 -1 -14 10 -17 -3 -9 -22 14 -10 12 -12 17 -5 10 7 -6 19 -10
25 -9z m-343 -78 c10 -20 9 -20 -10 2 -20 23 -37 30 -25 10 5 -7 2 -8 -7 -3
-34 19 -40 28 -28 36 16 9 57 -17 70 -45z m-136 4 c3 -5 1 -10 -4 -10 -6 0
-11 5 -11 10 0 6 2 10 4 10 3 0 8 -4 11 -10z m635 -54 c0 -8 4 -16 8 -18 14
-6 52 -66 52 -81 0 -9 6 -22 14 -29 7 -8 21 -27 30 -43 9 -17 23 -40 32 -52
13 -18 14 -23 3 -23 -8 0 -27 23 -42 50 -16 28 -32 48 -38 45 -5 -4 -6 2 -2
11 4 11 2 15 -4 11 -11 -7 -24 15 -28 45 -1 10 -9 26 -17 35 -21 24 -32 63
-19 63 6 0 11 -6 11 -14z m-20 -66 c12 -16 19 -30 16 -30 -2 0 -14 14 -26 30
-12 17 -19 30 -16 30 2 0 14 -13 26 -30z m-452 -30 c7 -11 11 -20 9 -20 -2 0
-12 9 -22 20 -10 11 -14 20 -9 20 5 0 15 -9 22 -20z m94 -95 c11 -21 10 -20
-37 35 l-30 35 28 -25 c16 -14 33 -34 39 -45z m113 -107 c-4 12 -2 22 3 22 12
0 33 -25 27 -32 -3 -2 9 -17 25 -33 17 -16 30 -33 30 -38 0 -5 14 -22 31 -38
17 -16 27 -29 23 -29 -5 0 -1 -5 9 -11 9 -5 17 -14 17 -20 0 -5 9 -20 20 -31
21 -23 53 -85 65 -127 6 -18 4 -22 -6 -16 -11 6 -12 5 -1 -6 6 -7 12 -20 12
-28 0 -12 -3 -11 -18 2 -10 10 -22 14 -26 10 -4 -5 -6 -3 -4 2 2 6 -3 17 -10
25 -18 22 -65 84 -82 110 -8 13 -23 30 -32 39 -10 8 -18 20 -18 25 0 5 3 6 7
3 3 -4 13 -1 21 6 10 7 13 8 9 1 -4 -7 0 -17 7 -23 10 -9 16 -9 21 -1 4 6 1 9
-5 8 -7 -2 -14 6 -16 17 -1 11 -19 33 -39 49 -23 18 -32 32 -27 40 5 7 -1 21
-16 36 -22 22 -24 22 -18 5 5 -14 -1 -11 -18 10 -14 17 -25 35 -25 40 0 6 9
-1 20 -15 20 -24 20 -24 14 -2z m-15 -125 c0 -7 3 -13 8 -13 4 0 15 -14 24
-31 10 -16 13 -27 8 -24 -6 3 -10 1 -10 -4 0 -6 4 -11 9 -11 5 0 12 -8 15 -17
6 -15 4 -15 -14 2 -11 10 -20 26 -20 37 0 10 -4 18 -10 18 -5 0 -10 5 -10 11
0 6 -10 24 -21 41 l-22 30 22 -13 c11 -8 21 -19 21 -26z m421 -241 c27 -56 49
-108 49 -115 0 -11 -129 241 -129 253 0 17 38 -49 80 -138z m293 72 c3 -7 -2
-10 -15 -7 -22 6 -26 20 -4 20 8 0 16 -6 19 -13z m-4 -28 c0 -3 -4 -8 -10 -11
-5 -3 -10 -1 -10 4 0 6 5 11 10 11 6 0 10 -2 10 -4z m30 -41 c0 -3 8 -20 17
-38 10 -17 18 -36 18 -42 1 -5 6 -19 12 -30 6 -11 18 -40 26 -65 9 -25 34 -97
55 -160 22 -63 43 -137 46 -164 4 -27 9 -53 11 -56 5 -8 17 -68 18 -87 0 -7 5
-13 11 -13 6 0 5 -5 -2 -12 -7 -7 -12 -17 -12 -22 0 -6 4 -5 9 2 6 10 10 7 13
-12 3 -16 1 -23 -5 -19 -6 4 -8 -3 -4 -18 4 -13 7 -41 7 -61 0 -21 4 -38 10
-38 9 0 6 55 -5 88 -2 6 0 12 5 12 5 0 14 -34 21 -75 7 -41 16 -75 21 -75 4 0
6 6 3 13 -10 30 -14 100 -6 91 5 -5 12 -38 16 -74 4 -36 9 -68 10 -71 2 -3 7
-55 10 -115 5 -77 4 -106 -4 -99 -6 6 -13 55 -17 110 -3 55 -7 101 -9 103 -2
2 -3 -92 -2 -210 1 -117 -2 -240 -7 -273 -4 -33 -9 -72 -10 -86 -2 -15 -6 -32
-10 -38 -4 -6 -9 -30 -12 -53 -8 -76 -19 -165 -28 -213 -3 -16 -10 -60 -17
-98 -6 -37 -14 -69 -19 -72 -7 -4 -6 12 4 65 2 14 7 50 11 80 4 30 8 62 10 70
7 37 15 99 20 148 2 30 9 60 15 67 7 9 8 32 1 76 -11 80 -11 72 -14 204 -1 61
0 136 3 167 4 38 2 54 -5 48 -7 -5 -10 9 -11 43 0 29 -4 84 -8 122 -3 39 -8
93 -11 122 -3 46 -16 125 -29 178 -3 11 -14 67 -26 124 -11 58 -24 109 -29
115 -5 6 -14 36 -22 66 -17 71 -16 68 -18 86 0 8 -5 13 -10 10 -7 -5 -37 79
-34 94 1 3 -3 10 -8 16 -11 13 -19 42 -25 89 -4 27 -3 28 6 7 5 -12 9 -24 10
-27z m-360 25 c0 -5 -5 -10 -11 -10 -5 0 -7 5 -4 10 3 6 8 10 11 10 2 0 4 -4
4 -10z m-5692 -60 c-5 -17 -15 -33 -21 -37 -7 -4 -8 0 -3 13 5 10 11 27 13 37
3 9 9 17 14 17 4 0 3 -14 -3 -30z m6056 -108 c5 -13 3 -22 -3 -22 -6 0 -14 12
-17 28 -4 15 -9 32 -13 37 -3 6 -7 21 -8 35 -2 19 2 15 16 -15 10 -22 21 -50
25 -63z m-249 48 c3 -5 1 -10 -4 -10 -6 0 -11 5 -11 10 0 6 2 10 4 10 3 0 8
-4 11 -10z m-536 -340 c22 -22 52 -66 66 -98 66 -141 76 -156 81 -121 1 5 2
12 3 17 1 4 21 -31 44 -78 24 -47 58 -110 75 -140 31 -55 40 -84 48 -150 4
-41 -5 -110 -15 -110 -3 0 -15 28 -25 63 -26 88 -100 271 -142 353 -90 172
-123 224 -140 224 -6 0 -18 18 -27 40 -8 22 -14 40 -12 40 3 0 22 -18 44 -40z
m-5416 -125 c-3 -9 -8 -14 -10 -11 -3 3 -2 9 2 15 9 16 15 13 8 -4z m6324
-137 c-3 -8 -6 -5 -6 6 -1 11 2 17 5 13 3 -3 4 -12 1 -19z m14 -30 c1 -7 2
-25 3 -40 2 -15 -1 -25 -5 -23 -4 3 -6 13 -4 23 1 9 -2 25 -7 35 -5 11 -5 17
2 17 5 0 10 -6 11 -12z m-6368 -100 c-3 -24 -9 -47 -15 -53 -9 -9 -4 46 7 83
9 25 12 10 8 -30z m5859 -53 c-3 -5 -14 8 -23 30 -10 22 -15 44 -11 49 7 13
41 -66 34 -79z m537 -7 c8 -73 2 -246 -8 -253 -5 -2 -6 263 -2 283 3 10 7 -3
10 -30z m-6268 -58 l-10 -45 1 45 c1 45 9 73 15 55 1 -6 -1 -30 -6 -55z m-135
33 c-2 -10 -7 -40 -10 -67 -4 -27 -11 -57 -16 -65 -9 -15 -8 1 5 79 2 14 4 35
4 48 1 12 5 22 10 22 6 0 8 -8 7 -17z m5891 -113 c4 -76 -5 -94 -24 -50 -9 19
-17 49 -19 65 -2 17 -6 46 -8 66 -3 20 -2 40 2 43 13 13 46 -70 49 -124z
m-5817 -94 c0 -3 -4 -8 -10 -11 -5 -3 -10 -1 -10 4 0 6 5 11 10 11 6 0 10 -2
10 -4z m-84 -183 c1 -81 6 -173 9 -203 16 -159 26 -225 49 -327 3 -13 1 -23
-5 -23 -5 0 -9 6 -10 13 0 6 -2 19 -4 27 -11 49 -24 122 -30 170 -4 30 -9 71
-11 90 -18 145 -23 423 -8 407 4 -3 8 -73 10 -154z m6438 -15 c-4 -254 -4
-262 -9 -256 -3 2 -6 17 -7 31 -1 15 -6 27 -11 27 -5 0 -6 8 -3 18 3 9 8 45
11 80 4 47 2 61 -6 56 -9 -5 -10 9 -4 57 4 35 8 72 8 82 1 9 4 17 8 17 3 0 5
11 4 25 -2 14 0 23 4 21 3 -2 6 -73 5 -158z m-4 -324 c0 -8 -4 -14 -9 -14 -6
0 -9 9 -8 19 1 22 17 18 17 -5z m-5 -71 c-5 -45 -7 -62 -21 -158 -3 -22 -9
-57 -14 -79 -5 -21 -7 -47 -5 -57 2 -11 0 -19 -6 -19 -5 0 -9 12 -10 28 0 24
-1 25 -9 7 -6 -13 -7 -5 -3 25 3 25 10 53 15 63 5 10 7 21 4 25 -3 3 2 14 11
25 11 13 12 17 4 12 -11 -6 -13 -4 -7 10 4 11 12 52 18 92 13 80 31 101 23 26z
m-6362 -173 c3 -11 1 -18 -4 -14 -5 3 -9 12 -9 20 0 20 7 17 13 -6z m276 -95
c0 -5 -4 -3 -9 5 -5 8 -9 22 -9 30 0 16 17 -16 18 -35z m6068 -27 c-3 -8 -6
-5 -6 6 -1 11 2 17 5 13 3 -3 4 -12 1 -19z m-54 -33 c-3 -9 -8 -14 -10 -11 -3
3 -2 9 2 15 9 16 15 13 8 -4z m148 -8 c-10 -9 -11 -8 -5 6 3 10 9 15 12 12 3
-3 0 -11 -7 -18z m-131 -17 c-5 -17 -9 -34 -9 -37 0 -4 -4 -9 -10 -11 -6 -2
-9 2 -6 10 18 52 25 68 29 68 3 0 1 -14 -4 -30z m-160 -1127 c0 -5 -10 -19
-21 -33 l-21 -25 18 33 c18 32 24 38 24 25z m-1905 -1363 c-3 -5 -12 -10 -18
-10 -7 0 -6 4 3 10 19 12 23 12 15 0z m-110 -40 c-3 -5 -12 -10 -18 -10 -7 0
-6 4 3 10 19 12 23 12 15 0z"/>
<path d="M3677 7160 c-9 -11 -13 -20 -7 -20 5 0 14 9 20 20 6 11 9 20 8 20 -2
0 -11 -9 -21 -20z"/>
<path d="M3412 6840 c-7 -11 -8 -20 -3 -20 9 0 24 30 18 36 -1 2 -8 -6 -15
-16z"/>
<path d="M8050 6756 c0 -2 7 -9 15 -16 13 -11 14 -10 9 4 -5 14 -24 23 -24 12z"/>
<path d="M8134 6629 c-4 -8 -3 -9 4 -5 11 7 16 -5 13 -30 -1 -6 5 -16 12 -23
10 -8 14 -7 14 4 0 8 -5 12 -10 8 -5 -3 -6 3 -3 14 8 24 -18 51 -30 32z"/>
<path d="M8196 6517 c3 -10 9 -15 12 -12 3 3 0 11 -7 18 -10 9 -11 8 -5 -6z"/>
<path d="M8953 5570 c0 -34 4 -55 9 -48 5 8 8 2 9 -17 2 -50 8 -87 14 -93 3
-3 4 24 3 61 -2 37 -6 67 -10 67 -4 0 -7 8 -6 18 3 36 -2 72 -11 72 -5 0 -8
-27 -8 -60z"/>
<path d="M8990 5570 c0 -5 5 -10 10 -10 6 0 10 5 10 10 0 6 -4 10 -10 10 -5 0
-10 -4 -10 -10z"/>
<path d="M6755 8500 c3 -5 23 -11 46 -15 22 -4 53 -13 67 -21 15 -8 32 -14 39
-14 13 0 192 -73 228 -92 18 -10 19 -9 6 5 -7 10 -19 17 -26 17 -7 0 -33 10
-57 21 -50 25 -71 34 -188 78 -61 22 -123 34 -115 21z"/>
<path d="M6495 8450 c-3 -5 -1 -10 4 -10 6 0 11 5 11 10 0 6 -2 10 -4 10 -3 0
-8 -4 -11 -10z"/>
<path d="M6590 8416 c0 -2 7 -7 16 -10 8 -3 12 -2 9 4 -6 10 -25 14 -25 6z"/>
<path d="M6640 8393 c8 -3 17 -9 20 -13 8 -11 70 -30 70 -21 0 9 -78 42 -95
40 -6 0 -3 -3 5 -6z"/>
<path d="M6894 8391 c3 -5 16 -11 28 -14 13 -2 61 -19 108 -37 47 -17 90 -33
95 -34 12 -3 47 -17 58 -23 4 -2 7 -2 7 1 0 6 -118 61 -185 87 -60 22 -119 33
-111 20z"/>
<path d="M6430 8368 c0 -5 16 -8 35 -8 19 0 35 3 35 8 0 4 -16 7 -35 7 -19 0
-35 -3 -35 -7z"/>
<path d="M5040 8310 l-35 -7 32 -2 c17 0 35 4 38 9 3 6 5 9 3 9 -2 -1 -19 -5
-38 -9z"/>
<path d="M5180 8218 c-30 -5 -59 -10 -65 -13 -16 -7 126 5 165 15 l35 8 -40
-1 c-22 0 -65 -5 -95 -9z"/>
<path d="M6470 8220 c0 -8 60 -23 67 -17 1 2 -13 8 -32 14 -19 6 -35 8 -35 3z"/>
<path d="M7497 8214 c-7 -7 19 -30 133 -111 47 -34 105 -82 130 -107 25 -26
61 -61 80 -79 104 -96 228 -228 243 -258 9 -19 37 -56 62 -83 25 -26 45 -50
45 -53 0 -2 6 -10 13 -17 15 -15 69 -83 79 -99 4 -6 9 -9 12 -6 3 3 -14 32
-39 64 -25 31 -45 60 -45 64 0 8 41 -42 77 -94 16 -22 31 -41 36 -43 4 -2 7
-9 7 -15 1 -7 15 -28 31 -47 l31 -35 -28 55 c-47 93 -116 180 -147 187 -27 5
-59 40 -74 81 -17 42 -239 277 -353 372 -29 25 -63 54 -74 66 -12 11 -39 33
-61 50 -22 16 -42 32 -45 35 -3 3 -25 19 -50 34 -25 15 -48 32 -51 37 -3 4 -8
5 -12 2z"/>
<path d="M6580 8190 c17 -11 47 -14 36 -3 -3 4 -17 8 -29 10 -17 2 -19 1 -7
-7z"/>
<path d="M6636 8182 c-3 -5 1 -9 9 -9 8 0 12 4 9 9 -3 4 -7 8 -9 8 -2 0 -6 -4
-9 -8z"/>
<path d="M6675 8170 c3 -5 8 -10 11 -10 2 0 4 5 4 10 0 6 -5 10 -11 10 -5 0
-7 -4 -4 -10z"/>
<path d="M6527 8149 c7 -7 15 -10 18 -7 3 3 -2 9 -12 12 -14 6 -15 5 -6 -5z"/>
<path d="M7390 8010 c0 -5 5 -10 11 -10 5 0 7 5 4 10 -3 6 -8 10 -11 10 -2 0
-4 -4 -4 -10z"/>
<path d="M7582 8000 c4 -12 71 -71 123 -108 6 -4 19 -14 29 -22 18 -14 19 -14
8 7 -7 12 -40 43 -75 69 -34 26 -68 52 -76 58 -11 9 -13 8 -9 -4z"/>
<path d="M3629 7953 c-13 -16 -12 -17 4 -4 16 13 21 21 13 21 -2 0 -10 -8 -17
-17z"/>
<path d="M6765 7950 c3 -5 16 -10 28 -10 12 0 42 -7 67 -16 85 -30 130 -42
130 -34 0 8 -97 45 -145 54 -75 16 -86 16 -80 6z"/>
<path d="M3595 7930 c-3 -5 -1 -10 4 -10 6 0 11 5 11 10 0 6 -2 10 -4 10 -3 0
-8 -4 -11 -10z"/>
<path d="M6720 7880 c8 -5 20 -10 25 -10 6 0 3 5 -5 10 -8 5 -19 10 -25 10 -5
0 -3 -5 5 -10z"/>
<path d="M7015 7870 c27 -12 43 -12 25 0 -8 5 -22 9 -30 9 -10 0 -8 -3 5 -9z"/>
<path d="M6796 7853 c10 -7 24 -11 31 -9 7 3 26 1 41 -5 21 -8 24 -8 15 2 -6
6 -26 12 -42 13 -17 1 -31 4 -31 7 0 3 -7 6 -16 6 -14 0 -14 -2 2 -14z"/>
<path d="M7080 7856 c0 -2 7 -7 16 -10 8 -3 12 -2 9 4 -6 10 -25 14 -25 6z"/>
<path d="M7228 7853 c7 -3 16 -2 19 1 4 3 -2 6 -13 5 -11 0 -14 -3 -6 -6z"/>
<path d="M7610 7834 c1 -10 82 -74 94 -74 10 0 -10 19 -56 54 -21 16 -38 24
-38 20z"/>
<path d="M7610 7790 c0 -5 4 -10 8 -10 5 0 22 -12 39 -27 17 -16 44 -39 60
-52 15 -13 36 -31 46 -39 16 -14 17 -14 11 1 -3 9 -10 17 -16 17 -5 0 -6 5 -2
12 4 7 3 8 -5 4 -6 -4 -14 0 -17 8 -3 9 -13 16 -21 16 -8 0 -11 5 -8 10 3 6
-1 10 -9 10 -8 0 -19 6 -23 13 -12 19 -63 49 -63 37z"/>
<path d="M7575 7626 c22 -20 44 -36 49 -36 5 0 7 1 5 3 -2 2 -24 18 -49 36
l-45 33 40 -36z"/>
<path d="M7810 7627 c0 -2 11 -13 25 -25 14 -12 25 -18 25 -13 0 5 -11 16 -25
25 -14 9 -25 15 -25 13z"/>
<path d="M7000 7580 c8 -5 20 -10 25 -10 6 0 3 5 -5 10 -8 5 -19 10 -25 10 -5
0 -3 -5 5 -10z"/>
<path d="M7090 7550 c0 -6 7 -10 15 -10 8 0 15 2 15 4 0 2 -7 6 -15 10 -8 3
-15 1 -15 -4z"/>
<path d="M6990 7529 c0 -5 4 -9 9 -9 5 0 17 -3 27 -7 11 -4 15 -3 11 4 -9 14
-47 24 -47 12z"/>
<path d="M7140 7530 c8 -5 20 -10 25 -10 6 0 3 5 -5 10 -8 5 -19 10 -25 10 -5
0 -3 -5 5 -10z"/>
<path d="M7970 7510 c0 -5 5 -10 11 -10 5 0 7 5 4 10 -3 6 -8 10 -11 10 -2 0
-4 -4 -4 -10z"/>
<path d="M7682 7451 c18 -16 35 -28 37 -26 5 5 -50 55 -61 55 -4 0 6 -13 24
-29z"/>
<path d="M7797 7459 c12 -12 25 -20 28 -17 3 3 -7 13 -22 23 l-28 17 22 -23z"/>
<path d="M7992 7463 c-8 -3 1 -20 26 -51 37 -44 59 -87 54 -105 -1 -5 3 -5 9
-1 6 3 15 0 20 -7 7 -11 9 -10 9 4 0 9 -5 17 -11 17 -6 0 -9 7 -5 15 3 8 -1
21 -9 29 -8 8 -11 16 -6 18 5 2 -1 14 -13 28 -36 40 -60 58 -74 53z m33 -33
l20 -25 -22 19 c-13 11 -23 24 -23 29 0 6 1 8 3 6 1 -2 11 -15 22 -29z"/>
<path d="M7450 7436 c0 -2 7 -7 16 -10 8 -3 12 -2 9 4 -6 10 -25 14 -25 6z"/>
<path d="M8107 7382 c-16 -3 -16 -5 0 -32 9 -16 24 -28 35 -27 21 2 23 11 5
29 -8 7 -16 18 -18 24 -2 5 -12 8 -22 6z m23 -37 c14 -19 14 -19 -2 -6 -10 7
-18 18 -18 24 0 6 1 8 3 6 1 -2 9 -13 17 -24z"/>
<path d="M7070 7346 c0 -2 7 -7 16 -10 8 -3 12 -2 9 4 -6 10 -25 14 -25 6z"/>
<path d="M7610 7311 c0 -6 4 -13 10 -16 6 -3 7 1 4 9 -7 18 -14 21 -14 7z"/>
<path d="M7462 7294 c10 -10 20 -16 22 -13 3 3 -5 11 -17 18 -21 13 -21 12 -5
-5z"/>
<path d="M7890 7295 c0 -12 90 -99 95 -93 3 2 -18 26 -45 53 -28 27 -50 45
-50 40z"/>
<path d="M8325 7280 c5 -8 30 -48 57 -89 26 -41 48 -79 48 -83 0 -4 4 -8 9 -8
6 0 4 10 -2 23 -47 85 -80 137 -99 153 -14 12 -18 14 -13 4z"/>
<path d="M8396 7277 c3 -10 9 -15 12 -12 3 3 0 11 -7 18 -10 9 -11 8 -5 -6z"/>
<path d="M7510 7256 c0 -2 7 -6 15 -10 8 -3 15 -1 15 4 0 6 -7 10 -15 10 -8 0
-15 -2 -15 -4z"/>
<path d="M7525 7220 c10 -11 20 -20 23 -20 3 0 -3 9 -13 20 -10 11 -20 20 -23
20 -3 0 3 -9 13 -20z"/>
<path d="M7550 7230 c0 -5 5 -10 11 -10 5 0 7 5 4 10 -3 6 -8 10 -11 10 -2 0
-4 -4 -4 -10z"/>
<path d="M7887 7219 c12 -12 24 -21 27 -18 2 2 -8 13 -22 23 l-27 19 22 -24z"/>
<path d="M7330 7206 c0 -2 8 -10 18 -17 15 -13 16 -12 3 4 -13 16 -21 21 -21
13z"/>
<path d="M7924 7182 c8 -13 66 -56 66 -49 0 3 -17 17 -37 33 -20 15 -33 23
-29 16z"/>
<path d="M7370 7177 c0 -11 123 -97 133 -93 7 2 4 5 -5 5 -9 1 -21 7 -25 14
-8 13 -103 81 -103 74z"/>
<path d="M8076 7167 c3 -10 9 -15 12 -12 3 3 0 11 -7 18 -10 9 -11 8 -5 -6z"/>
<path d="M2815 7099 c-4 -6 -5 -12 -2 -15 2 -3 7 2 10 11 7 17 1 20 -8 4z"/>
<path d="M8396 7085 c10 -16 21 -32 25 -35 3 -3 14 -20 24 -37 11 -18 23 -33
27 -33 12 0 -25 62 -60 100 -32 33 -33 33 -16 5z"/>
<path d="M7065 7090 c3 -5 8 -10 11 -10 2 0 4 5 4 10 0 6 -5 10 -11 10 -5 0
-7 -4 -4 -10z"/>
<path d="M7091 7086 c9 -9 109 -46 109 -40 0 6 -51 27 -90 39 -14 4 -22 4 -19
1z"/>
<path d="M8516 6957 c3 -10 9 -15 12 -12 3 3 0 11 -7 18 -10 9 -11 8 -5 -6z"/>
<path d="M8510 6905 c0 -8 4 -15 10 -15 5 0 7 7 4 15 -4 8 -8 15 -10 15 -2 0
-4 -7 -4 -15z"/>
<path d="M8550 6895 c0 -8 4 -15 10 -15 5 0 7 7 4 15 -4 8 -8 15 -10 15 -2 0
-4 -7 -4 -15z"/>
<path d="M8113 6877 c0 -12 1 -16 4 -8 5 11 7 11 14 0 5 -8 9 -9 9 -3 0 6 -6
16 -13 22 -10 8 -13 6 -14 -11z"/>
<path d="M2680 6869 c0 -5 5 -7 10 -4 6 3 10 8 10 11 0 2 -4 4 -10 4 -5 0 -10
-5 -10 -11z"/>
<path d="M8576 6857 c3 -10 9 -15 12 -12 3 3 0 11 -7 18 -10 9 -11 8 -5 -6z"/>
<path d="M2651 6810 c-12 -22 -20 -40 -18 -40 7 0 48 72 44 76 -2 2 -14 -14
-26 -36z"/>
<path d="M2897 6769 c-41 -77 -48 -100 -17 -54 24 35 62 117 57 121 -2 2 -20
-28 -40 -67z"/>
<path d="M2815 6750 c-3 -5 -1 -10 4 -10 6 0 11 5 11 10 0 6 -2 10 -4 10 -3 0
-8 -4 -11 -10z"/>
<path d="M2791 6687 c-8 -10 -7 -14 4 -14 8 0 12 4 9 8 -2 4 2 10 8 12 8 4 9
6 2 6 -6 1 -17 -5 -23 -12z"/>
<path d="M2845 6669 c-4 -6 -5 -12 -2 -15 2 -3 7 2 10 11 7 17 1 20 -8 4z"/>
<path d="M2811 6600 c-12 -22 -20 -40 -18 -40 7 0 48 72 44 76 -2 2 -14 -14
-26 -36z"/>
<path d="M2773 6513 c-8 -21 -22 -51 -30 -68 -9 -16 -11 -25 -5 -20 13 12 64
125 56 125 -3 0 -12 -17 -21 -37z"/>
<path d="M7641 6504 c0 -11 3 -14 6 -6 3 7 2 16 -1 19 -3 4 -6 -2 -5 -13z"/>
<path d="M7910 6493 c5 -12 15 -25 20 -28 6 -4 8 -11 5 -16 -4 -5 -1 -9 4 -9
17 0 13 13 -15 45 -17 21 -22 23 -14 8z"/>
<path d="M2840 6480 c-6 -11 -8 -20 -6 -20 3 0 10 9 16 20 6 11 8 20 6 20 -3
0 -10 -9 -16 -20z"/>
<path d="M2725 6400 c3 -5 8 -10 11 -10 2 0 4 5 4 10 0 6 -5 10 -11 10 -5 0
-7 -4 -4 -10z"/>
<path d="M2710 6370 c0 -5 5 -10 10 -10 6 0 10 5 10 10 0 6 -4 10 -10 10 -5 0
-10 -4 -10 -10z"/>
<path d="M2700 6339 c0 -5 5 -7 10 -4 6 3 10 8 10 11 0 2 -4 4 -10 4 -5 0 -10
-5 -10 -11z"/>
<path d="M2401 6254 c0 -11 3 -14 6 -6 3 7 2 16 -1 19 -3 4 -6 -2 -5 -13z"/>
<path d="M9091 5674 c0 -11 3 -14 6 -6 3 7 2 16 -1 19 -3 4 -6 -2 -5 -13z"/>
<path d="M9326 5253 c-4 -23 -5 -47 -1 -53 3 -5 2 -10 -2 -10 -5 0 -9 -19 -9
-42 -1 -74 -14 -192 -25 -228 -12 -41 -15 -56 -23 -101 -3 -19 -15 -77 -26
-129 -11 -52 -23 -106 -26 -120 -3 -14 -10 -43 -16 -65 -6 -22 -11 -45 -12
-52 -1 -7 -5 -16 -9 -19 -4 -4 -7 -13 -7 -20 0 -7 -5 -25 -12 -41 -6 -15 -13
-36 -15 -46 -1 -10 -10 -31 -18 -47 -8 -16 -15 -36 -15 -45 0 -8 -5 -15 -12
-15 -6 0 -9 -3 -5 -6 3 -4 -3 -25 -15 -48 -11 -22 -16 -36 -10 -31 24 24 92
172 120 262 36 115 102 381 133 538 22 111 28 219 19 310 l-6 50 -8 -42z"/>
<path d="M9122 5135 c0 -16 2 -22 5 -12 2 9 2 23 0 30 -3 6 -5 -1 -5 -18z"/>
<path d="M9115 5050 c-3 -6 1 -7 9 -4 18 7 21 14 7 14 -6 0 -13 -4 -16 -10z"/>
<path d="M9055 4109 c-4 -6 -5 -12 -2 -15 2 -3 7 2 10 11 7 17 1 20 -8 4z"/>
<path d="M9196 4083 c-6 -14 -5 -15 5 -6 7 7 10 15 7 18 -3 3 -9 -2 -12 -12z"/>
<path d="M9025 4039 c-4 -6 -5 -12 -2 -15 2 -3 7 2 10 11 7 17 1 20 -8 4z"/>
<path d="M9170 3977 c0 -1 -4 -18 -10 -36 -5 -19 -6 -30 -1 -25 10 11 24 64
16 64 -3 0 -5 -1 -5 -3z"/>
<path d="M9146 3885 c-9 -26 -7 -32 5 -12 6 10 9 21 6 23 -2 3 -7 -2 -11 -11z"/>
<path d="M8973 3794 c7 -7 -30 -79 -97 -188 -33 -56 -42 -76 -32 -76 9 0 146
249 146 265 0 3 -5 5 -12 5 -6 0 -8 -3 -5 -6z"/>
<path d="M7835 2329 c-5 -6 -26 -24 -45 -40 l-35 -30 48 31 c26 17 47 35 47
40 0 12 -2 12 -15 -1z"/>
<path d="M7479 2063 c-13 -16 -12 -17 4 -4 16 13 21 21 13 21 -2 0 -10 -8 -17
-17z"/>
<path d="M5416 1411 c5 -6 20 -12 34 -15 14 -3 36 -7 50 -10 64 -14 81 -14 38
0 -27 8 -48 19 -48 25 0 5 -19 9 -42 9 -26 0 -38 -4 -32 -9z"/>
<path d="M5590 1368 c0 -6 2 -9 6 -6 3 3 21 2 41 -2 19 -5 32 -5 27 -1 -16 15
-74 21 -74 9z"/>
</g>
</svg>
